<?xml version="1.0" encoding="UTF-8" standalone="no"?>
<!DOCTYPE svg PUBLIC "-//W3C//DTD SVG 1.1//EN" "http://www.w3.org/Graphics/SVG/1.1/DTD/svg11.dtd">
<svg width="100%" height="100%" viewBox="0 0 900 900" version="1.1" xmlns="http://www.w3.org/2000/svg" xmlns:xlink="http://www.w3.org/1999/xlink" xml:space="preserve" xmlns:serif="http://www.serif.com/" style="fill-rule:evenodd;clip-rule:evenodd;stroke-linejoin:round;stroke-miterlimit:1.41421;">
    <g transform="matrix(0.1,0,0,-0.1,0,900)">
        <path d="M4082,6990C4064,6979 4044,6970 4037,6970C4021,6970 3980,6928 3980,6913C3980,6907 3967,6897 3950,6891C3934,6886 3920,6877 3920,6872C3920,6858 3798,6740 3785,6740C3778,6740 3754,6710 3731,6674C3708,6638 3676,6601 3659,6592C3643,6582 3630,6571 3630,6567C3630,6562 3601,6528 3566,6492C3531,6455 3495,6411 3487,6394C3478,6377 3460,6356 3446,6346C3405,6319 3260,6171 3260,6155C3260,6122 3203,6058 3083,5955C3028,5908 3006,5885 2892,5747C2869,5718 2834,5677 2814,5655C2782,5618 2743,5565 2686,5480C2673,5461 2655,5439 2646,5431C2637,5424 2630,5411 2630,5402C2630,5394 2609,5366 2583,5340C2556,5314 2528,5282 2520,5270C2469,5193 2320,5030 2301,5030C2295,5030 2277,5010 2259,4985C2242,4961 2223,4943 2219,4946C2214,4949 2210,4971 2210,4995C2210,5053 2190,5065 2141,5039C2121,5029 2098,5020 2088,5020C2063,5020 2054,4979 2076,4963C2097,4947 2116,4946 2125,4960C2135,4976 2150,4962 2149,4937C2149,4925 2152,4903 2155,4888C2162,4863 2139,4819 2104,4785C2067,4749 2015,4644 2001,4575C1996,4548 1983,4496 1973,4460C1957,4405 1950,4394 1926,4385C1901,4377 1895,4379 1874,4403C1861,4419 1850,4442 1850,4456C1850,4469 1843,4483 1835,4486C1827,4490 1820,4500 1820,4510C1820,4539 1791,4554 1736,4555C1686,4555 1685,4556 1665,4597C1640,4649 1592,4700 1569,4700C1559,4700 1542,4714 1530,4730C1518,4747 1504,4758 1499,4755C1478,4742 1492,4702 1530,4665C1552,4644 1570,4619 1570,4611C1570,4592 1624,4520 1683,4461C1709,4434 1730,4408 1730,4403C1730,4397 1737,4387 1746,4380C1764,4364 1850,4252 1850,4244C1850,4241 1861,4225 1875,4208C1888,4192 1905,4160 1911,4137C1917,4114 1927,4085 1932,4073C1938,4061 1939,4037 1936,4018C1912,3901 1909,3808 1928,3775C1932,3770 1935,3736 1937,3701C1938,3666 1943,3633 1948,3626C1953,3620 1960,3571 1963,3518C1967,3453 1974,3413 1984,3398C2003,3371 2005,3339 1988,3322C1979,3313 1980,3299 1993,3262C2010,3216 2012,3129 1997,3114C1994,3110 1984,3113 1975,3120C1963,3130 1957,3130 1945,3120C1926,3104 1926,3066 1944,3051C1962,3036 2000,3053 2000,3075C2000,3102 2018,3090 2079,3023C2142,2952 2180,2866 2180,2795C2180,2777 2187,2757 2195,2750C2204,2743 2210,2721 2210,2695C2210,2654 2232,2596 2270,2535C2282,2515 2287,2494 2283,2473C2279,2445 2281,2439 2304,2430C2331,2420 2337,2406 2320,2395C2302,2384 2310,2370 2335,2370C2355,2370 2360,2365 2360,2345C2360,2331 2369,2312 2381,2302C2392,2293 2417,2264 2436,2238C2455,2211 2475,2190 2481,2190C2487,2190 2505,2199 2520,2210L2548,2230L2584,2209C2625,2185 2640,2190 2640,2229C2640,2255 2654,2275 2710,2322C2726,2336 2730,2352 2730,2395C2730,2448 2729,2450 2702,2450C2662,2450 2620,2501 2620,2551C2620,2579 2615,2592 2600,2600C2585,2608 2581,2617 2585,2631C2594,2659 2562,2736 2534,2755C2519,2764 2510,2780 2510,2796C2510,2809 2503,2837 2495,2857C2472,2911 2474,3149 2497,3193C2508,3213 2514,3247 2514,3283C2513,3319 2517,3340 2525,3340C2531,3340 2554,3322 2575,3300C2596,3278 2618,3260 2623,3260C2635,3260 2700,3211 2735,3176C2752,3159 2781,3137 2800,3127C2819,3117 2864,3085 2900,3055C2936,3025 2977,2995 2993,2989C3008,2983 3020,2974 3020,2970C3020,2965 3031,2955 3043,2948C3093,2920 3217,2826 3270,2776C3284,2763 3305,2749 3317,2745C3329,2742 3351,2725 3365,2708C3379,2691 3406,2667 3424,2655C3469,2625 3481,2614 3576,2526C3620,2484 3661,2450 3666,2450C3671,2450 3695,2430 3719,2406C3743,2382 3792,2341 3830,2316C3896,2271 3898,2270 3977,2270C4052,2270 4058,2272 4084,2299C4111,2327 4116,2328 4199,2328C4261,2328 4296,2333 4318,2344C4335,2353 4371,2360 4397,2360C4424,2360 4454,2367 4465,2376C4477,2385 4504,2390 4535,2389C4586,2388 4633,2401 4645,2419C4648,2425 4666,2430 4685,2430C4704,2430 4722,2434 4725,2440C4728,2446 4746,2450 4764,2450C4783,2450 4803,2457 4810,2465C4817,2473 4839,2480 4860,2480C4881,2480 4903,2486 4909,2494C4915,2501 4944,2510 4973,2513C5018,2517 5101,2549 5150,2581C5158,2586 5184,2599 5206,2609C5229,2620 5251,2633 5255,2639C5265,2657 5346,2690 5378,2690C5400,2690 5418,2701 5447,2733C5469,2757 5489,2781 5491,2786C5496,2797 5548,2834 5573,2843C5582,2847 5595,2861 5600,2875C5610,2902 5621,2904 5702,2900C5740,2899 5749,2902 5754,2918C5761,2940 5814,2954 5853,2945C5884,2937 5909,2964 5893,2988C5880,3010 5803,3019 5770,3003C5756,2996 5738,2990 5730,2990C5722,2990 5706,2983 5696,2975C5682,2965 5651,2960 5593,2960C5511,2960 5510,2960 5510,2985C5510,3018 5464,3043 5446,3020C5440,3012 5414,2994 5388,2981C5350,2961 5339,2959 5327,2969C5317,2977 5310,2978 5305,2970C5302,2965 5266,2960 5226,2960C5187,2960 5149,2955 5143,2949C5137,2943 5077,2936 5005,2934C4935,2932 4868,2924 4857,2918C4845,2912 4813,2906 4785,2904C4620,2895 4534,2887 4526,2879C4520,2874 4497,2870 4475,2870C4452,2870 4411,2863 4384,2855C4357,2847 4305,2840 4268,2840C4217,2840 4191,2834 4156,2816C4113,2793 4108,2792 4079,2807C4062,2815 4030,2842 4007,2867C3984,2892 3961,2909 3953,2906C3937,2900 3890,2942 3890,2962C3890,2980 3738,3128 3663,3183C3629,3207 3593,3235 3585,3244C3576,3253 3555,3260 3539,3260C3518,3260 3507,3267 3499,3283C3487,3311 3431,3350 3404,3350C3393,3350 3377,3363 3367,3380C3357,3397 3346,3410 3342,3410C3338,3410 3322,3422 3305,3438C3244,3495 3176,3540 3150,3540C3112,3540 3065,3566 3035,3603C2979,3674 2945,3710 2934,3710C2927,3710 2906,3728 2887,3749C2867,3771 2838,3796 2823,3803C2808,3811 2786,3827 2776,3839C2765,3851 2753,3860 2749,3860C2744,3860 2703,3897 2657,3943C2602,3998 2568,4040 2556,4070C2546,4095 2525,4143 2509,4178C2493,4212 2480,4246 2480,4253C2480,4260 2467,4281 2450,4300C2425,4330 2421,4344 2420,4393C2420,4456 2432,4490 2456,4490C2464,4490 2475,4479 2481,4466C2488,4452 2503,4439 2515,4436C2539,4430 2542,4423 2570,4320C2585,4267 2589,4259 2595,4277C2604,4304 2617,4298 2631,4263C2638,4243 2645,4239 2665,4244C2683,4249 2698,4243 2723,4220C2742,4204 2760,4190 2764,4190C2777,4190 2810,4149 2810,4133C2810,4107 2939,3988 2959,3995C2971,3999 2991,3982 3026,3939C3085,3865 3263,3685 3285,3676C3293,3673 3305,3659 3310,3645C3321,3616 3327,3613 3392,3607C3447,3602 3456,3588 3293,3758C3216,3837 3170,3893 3170,3906C3170,3917 3184,3939 3200,3955C3223,3977 3230,3993 3230,4021C3230,4051 3234,4060 3252,4066C3268,4071 3278,4067 3288,4051C3296,4040 3312,4030 3324,4029C3339,4028 3335,4025 3313,4019C3295,4014 3280,4003 3280,3996C3280,3980 3307,3967 3322,3976C3339,3987 3399,3947 3409,3918C3415,3903 3423,3890 3428,3890C3433,3890 3442,3879 3448,3866C3456,3848 3470,3839 3497,3834C3544,3826 3560,3814 3560,3786C3560,3774 3565,3759 3572,3752C3589,3735 3639,3737 3646,3755C3653,3773 3676,3775 3687,3758C3691,3751 3711,3737 3730,3727C3753,3715 3771,3696 3782,3671C3795,3642 3806,3631 3829,3627C3847,3623 3865,3610 3876,3591C3898,3554 3913,3547 3935,3564C3963,3584 3947,3611 3845,3714C3793,3767 3750,3814 3750,3819C3750,3834 3780,3841 3800,3830C3810,3825 3821,3811 3825,3801C3832,3779 3890,3739 3902,3746C3919,3756 3909,3797 3885,3820C3871,3833 3860,3851 3860,3861C3860,3870 3853,3883 3845,3890C3837,3897 3830,3916 3830,3933C3830,3950 3823,3970 3815,3979C3807,3988 3779,4024 3754,4058C3709,4122 3704,4145 3740,4122C3757,4111 3760,4112 3760,4130C3760,4150 3756,4152 3714,4154C3693,4155 3570,4292 3570,4315C3570,4321 3559,4332 3547,4337C3534,4343 3515,4365 3506,4385C3496,4405 3479,4425 3467,4429C3455,4434 3392,4490 3328,4554C3264,4618 3208,4670 3204,4670C3201,4670 3180,4685 3159,4703C3108,4746 3059,4784 3046,4790C3040,4793 2995,4822 2947,4855C2861,4914 2860,4915 2866,4950C2870,4974 2886,4999 2916,5028C2940,5052 2960,5076 2960,5082C2960,5092 2986,5124 3066,5214C3090,5241 3110,5267 3110,5273C3110,5278 3121,5294 3134,5308C3147,5323 3201,5385 3253,5445C3351,5559 3465,5672 3513,5702C3528,5712 3546,5732 3552,5747C3565,5779 3575,5791 3689,5911C3733,5958 3770,5999 3770,6003C3770,6006 3790,6029 3815,6054C3840,6080 3860,6105 3860,6110C3860,6116 3895,6155 3938,6198C3980,6240 4042,6310 4074,6353C4106,6396 4144,6436 4158,6441C4195,6455 4243,6444 4294,6410C4318,6393 4342,6380 4348,6380C4353,6380 4369,6371 4384,6359C4398,6348 4426,6334 4445,6329C4464,6324 4502,6304 4530,6285C4569,6259 4593,6250 4625,6250C4651,6250 4676,6243 4691,6231C4725,6205 4805,6170 4831,6170C4843,6170 4861,6164 4869,6156C4878,6149 4908,6135 4935,6125C4963,6115 4994,6100 5005,6093C5016,6086 5034,6080 5045,6080C5057,6080 5075,6073 5086,6065C5096,6057 5121,6050 5140,6050C5162,6050 5192,6039 5220,6020C5244,6004 5277,5988 5291,5985C5306,5981 5324,5972 5331,5964C5337,5956 5351,5950 5361,5950C5371,5950 5382,5946 5385,5940C5388,5935 5402,5930 5414,5930C5427,5930 5448,5921 5462,5911C5498,5882 5580,5840 5599,5840C5609,5840 5620,5836 5626,5831C5631,5826 5660,5812 5690,5800C5720,5788 5763,5770 5785,5760C5841,5735 5892,5720 5922,5720C5935,5720 5950,5717 5953,5714C5963,5703 6074,5660 6090,5660C6098,5660 6129,5644 6158,5623L6211,5587L6209,5448C6207,5352 6210,5306 6218,5298C6225,5291 6230,5266 6230,5241C6230,5206 6236,5190 6254,5173C6280,5148 6290,5152 6290,5187C6290,5220 6306,5215 6325,5177C6340,5146 6339,5140 6322,5099C6309,5070 6300,5016 6295,4945C6291,4884 6282,4823 6274,4808C6266,4792 6260,4750 6260,4704C6260,4644 6264,4620 6281,4593C6300,4563 6302,4547 6299,4442C6297,4363 6300,4318 6308,4303C6316,4288 6317,4274 6310,4256C6304,4240 6304,4229 6310,4225C6324,4217 6323,4153 6309,4144C6303,4141 6294,4143 6290,4150C6286,4157 6277,4159 6271,4156C6255,4146 6258,4108 6276,4081C6290,4062 6290,4054 6280,4035C6270,4017 6271,4005 6281,3977C6291,3948 6291,3938 6280,3925C6269,3912 6271,3905 6295,3880C6317,3857 6321,3847 6312,3838C6296,3822 6297,3787 6312,3772C6322,3762 6322,3755 6312,3740C6306,3729 6300,3713 6300,3705C6300,3696 6293,3687 6285,3684C6262,3675 6267,3652 6292,3648C6311,3646 6319,3633 6335,3576L6354,3507L6322,3480C6305,3466 6290,3450 6290,3447C6290,3443 6305,3440 6324,3440C6364,3440 6376,3428 6355,3410C6334,3392 6335,3350 6358,3350C6384,3350 6420,3394 6420,3426C6420,3442 6424,3461 6429,3469C6435,3478 6434,3492 6427,3507C6420,3524 6420,3536 6429,3553C6436,3566 6440,3594 6438,3616C6435,3653 6433,3655 6400,3658L6365,3661L6364,3720L6363,3778L6397,3773C6443,3765 6470,3790 6470,3842C6470,3867 6465,3883 6455,3886C6447,3890 6440,3899 6440,3907C6440,3935 6528,3913 6585,3871C6613,3851 6649,3828 6665,3821C6692,3808 6817,3787 6947,3774C6976,3771 7004,3762 7011,3754C7017,3746 7035,3740 7050,3740C7065,3740 7085,3731 7094,3721C7104,3711 7126,3699 7143,3696C7237,3679 7248,3679 7254,3689C7263,3703 7357,3704 7365,3690C7368,3685 7380,3680 7390,3680C7410,3680 7437,3643 7425,3632C7422,3628 7405,3633 7389,3643C7351,3664 7331,3665 7323,3645C7313,3618 7349,3590 7394,3590C7417,3589 7446,3583 7460,3575C7474,3567 7499,3561 7517,3560C7534,3560 7555,3554 7562,3547C7569,3540 7596,3524 7622,3511C7648,3499 7670,3484 7672,3478C7678,3460 7710,3477 7710,3499C7710,3510 7724,3526 7745,3539C7764,3550 7780,3563 7780,3568C7780,3583 7660,3652 7647,3646C7619,3631 7591,3613 7577,3601C7568,3594 7544,3590 7523,3592C7486,3595 7485,3596 7488,3630C7490,3649 7497,3672 7504,3680C7530,3711 7529,3729 7497,3772C7442,3847 7435,3863 7435,3920C7435,3975 7435,3975 7403,3978C7374,3981 7370,3978 7370,3956C7370,3942 7375,3928 7380,3925C7395,3916 7392,3874 7376,3860C7368,3854 7360,3839 7358,3827C7353,3789 7318,3795 7266,3844C7224,3882 7218,3893 7224,3915C7230,3937 7224,3949 7195,3981C7176,4002 7160,4025 7160,4030C7160,4036 7150,4054 7138,4070C7123,4091 7108,4100 7088,4100C7057,4100 7053,4085 7075,4056C7096,4029 7094,4010 7071,4010C7035,4010 7023,4020 7028,4046C7031,4063 7028,4070 7016,4070C7005,4070 7000,4079 7000,4099C7000,4125 6996,4129 6972,4128C6929,4127 6904,4138 6892,4165C6884,4182 6872,4190 6855,4190C6841,4190 6827,4197 6824,4205C6820,4213 6812,4220 6804,4220C6797,4220 6766,4231 6736,4244C6676,4271 6639,4313 6659,4333C6666,4340 6670,4410 6670,4557C6670,4763 6671,4772 6693,4801C6711,4826 6715,4845 6715,4900C6715,4942 6720,4974 6728,4981C6734,4988 6740,5014 6740,5039C6740,5063 6745,5098 6752,5116C6762,5145 6761,5155 6740,5194C6722,5231 6720,5242 6729,5254C6750,5279 6739,5324 6712,5328C6692,5331 6689,5335 6696,5353C6703,5372 6705,5455 6701,5537C6700,5550 6689,5580 6675,5604C6661,5629 6650,5657 6650,5667C6650,5678 6645,5691 6639,5697C6632,5704 6630,5726 6635,5757C6638,5783 6642,5832 6643,5865L6645,5925L6580,5957C6544,5975 6505,5989 6494,5990C6482,5990 6469,5997 6466,6006C6463,6015 6454,6020 6446,6017C6428,6010 6373,6038 6335,6074C6303,6104 6230,6140 6200,6140C6179,6140 6134,6158 6025,6210C5981,6231 5924,6251 5898,6255C5872,6258 5847,6267 5843,6273C5838,6280 5790,6307 5735,6335C5680,6362 5628,6390 5619,6397C5599,6413 5477,6456 5426,6465C5404,6469 5375,6480 5362,6491C5348,6501 5327,6510 5314,6510C5283,6510 5240,6529 5210,6557C5196,6569 5167,6582 5145,6586C5123,6589 5096,6600 5084,6611C5073,6621 5052,6630 5037,6630C5023,6630 5008,6635 5005,6640C5002,6646 4989,6650 4977,6650C4965,6650 4946,6657 4936,6665C4925,6673 4909,6680 4901,6680C4892,6680 4856,6700 4821,6725C4785,6750 4752,6770 4747,6770C4742,6770 4719,6783 4696,6798C4673,6814 4630,6835 4600,6845C4570,6855 4529,6871 4509,6881C4489,6892 4463,6900 4453,6900C4442,6900 4416,6911 4396,6925C4376,6939 4348,6950 4334,6950C4321,6950 4284,6964 4253,6980C4186,7016 4130,7019 4082,6990ZM6285,5289C6295,5274 6284,5266 6265,5274C6256,5277 6252,5284 6255,5290C6263,5303 6277,5303 6285,5289ZM6707,5253C6696,5243 6681,5261 6687,5276C6692,5291 6694,5290 6702,5275C6708,5266 6709,5256 6707,5253ZM2540,4534C2540,4526 2533,4520 2525,4520C2510,4520 2504,4541 2516,4553C2526,4562 2540,4551 2540,4534ZM3060,4129C3078,4095 3079,4084 3070,4054C3057,4017 3050,4014 3017,4032C2988,4047 2971,4070 2970,4094C2970,4111 3015,4166 3032,4169C3036,4169 3049,4152 3060,4129ZM6375,3902C6375,3856 6356,3858 6352,3904C6349,3932 6352,3941 6362,3938C6369,3935 6375,3919 6375,3902Z" style="fill:white;fill-rule:nonzero;"/>
        <path d="M1544,4923C1541,4913 1534,4897 1529,4887C1518,4867 1525,4850 1545,4850C1565,4850 1610,4908 1604,4925C1596,4946 1551,4944 1544,4923Z" style="fill:white;fill-rule:nonzero;"/>
        <path d="M1922,4882C1883,4837 1879,4775 1915,4775C1930,4775 1936,4783 1938,4804C1940,4820 1949,4844 1957,4857C1972,4879 1969,4911 1953,4909C1949,4909 1935,4897 1922,4882Z" style="fill:white;fill-rule:nonzero;"/>
        <path d="M6237,4344C6233,4340 6230,4317 6230,4293C6230,4245 6255,4231 6266,4274C6277,4320 6259,4365 6237,4344Z" style="fill:white;fill-rule:nonzero;"/>
        <path d="M7616,3879C7584,3854 7584,3846 7615,3812C7629,3797 7640,3777 7640,3768C7640,3746 7644,3746 7675,3766C7706,3786 7708,3831 7679,3871C7655,3906 7650,3906 7616,3879Z" style="fill:white;fill-rule:nonzero;"/>
        <path d="M6537,3743C6525,3732 6530,3666 6545,3640C6553,3625 6559,3587 6560,3548C6560,3511 6565,3478 6570,3475C6576,3472 6580,3458 6580,3445C6580,3432 6576,3418 6570,3415C6558,3407 6557,3360 6569,3342C6574,3334 6586,3330 6596,3332C6613,3335 6615,3347 6617,3460C6618,3554 6615,3590 6605,3607C6597,3619 6591,3648 6592,3673C6595,3730 6563,3770 6537,3743Z" style="fill:white;fill-rule:nonzero;"/>
        <path d="M3965,3641C3958,3629 3994,3608 4004,3617C4007,3620 4010,3629 4010,3637C4010,3652 3974,3655 3965,3641Z" style="fill:white;fill-rule:nonzero;"/>
        <path d="M3625,3530C3621,3524 3622,3514 3628,3508C3634,3502 3640,3502 3645,3510C3649,3516 3648,3526 3642,3532C3636,3538 3630,3538 3625,3530Z" style="fill:white;fill-rule:nonzero;"/>
        <path d="M7812,3463C7814,3453 7822,3445 7830,3445C7852,3445 7848,3474 7827,3478C7813,3481 7809,3477 7812,3463Z" style="fill:white;fill-rule:nonzero;"/>
        <path d="M3614,3426C3606,3392 3626,3358 3653,3362C3682,3366 3690,3418 3664,3437C3637,3456 3621,3453 3614,3426Z" style="fill:white;fill-rule:nonzero;"/>
        <path d="M2034,2989C2031,2983 2033,2973 2039,2967C2047,2959 2050,2962 2050,2978C2050,3002 2045,3006 2034,2989Z" style="fill:white;fill-rule:nonzero;"/>
        <path d="M4227,2906C4220,2888 4239,2870 4265,2870C4296,2870 4302,2881 4283,2902C4264,2923 4234,2926 4227,2906Z" style="fill:white;fill-rule:nonzero;"/>
        <path d="M2785,2470C2777,2458 2805,2446 2820,2455C2826,2458 2828,2466 2825,2471C2817,2483 2793,2483 2785,2470Z" style="fill:white;fill-rule:nonzero;"/>
        <path d="M2923,2448C2925,2428 2921,2425 2894,2427C2876,2429 2857,2424 2851,2416C2842,2405 2846,2397 2870,2376C2888,2362 2908,2350 2916,2350C2923,2350 2937,2339 2946,2325C2968,2292 2985,2293 3007,2330C3016,2347 3030,2360 3037,2360C3055,2360 3053,2331 3035,2324C3027,2320 3020,2309 3020,2298C3020,2287 3007,2265 2990,2250C2959,2221 2950,2180 2974,2180C2982,2180 2992,2185 2996,2191C3007,2210 3023,2173 3012,2153C2998,2129 3017,2093 3047,2087C3060,2085 3089,2087 3111,2093C3148,2102 3153,2100 3179,2076C3194,2062 3211,2050 3217,2050C3233,2050 3239,2072 3229,2095C3225,2106 3221,2127 3221,2142C3219,2188 3179,2210 3093,2210C3038,2210 3019,2213 3022,2223C3025,2229 3044,2237 3066,2240C3100,2244 3106,2249 3115,2282C3120,2302 3128,2322 3133,2326C3146,2340 3140,2371 3123,2377C3113,2381 3087,2398 3065,2415C3018,2452 2978,2470 2945,2470C2925,2470 2921,2465 2923,2448Z" style="fill:white;fill-rule:nonzero;"/>
        <path d="M2784,2316C2773,2288 2785,2245 2803,2242C2856,2232 2892,2268 2870,2310C2857,2334 2793,2339 2784,2316Z" style="fill:white;fill-rule:nonzero;"/>
        <path d="M2720,2178C2704,2172 2699,2164 2703,2151C2711,2121 2682,2087 2655,2094C2623,2102 2600,2092 2600,2069C2600,2054 2607,2050 2637,2050C2661,2050 2682,2042 2697,2028C2717,2009 2724,2008 2740,2018C2768,2035 2778,2033 2785,2010C2792,1987 2827,1983 2854,2003C2884,2025 2859,2060 2815,2060C2793,2060 2780,2065 2780,2073C2780,2091 2822,2130 2841,2130C2849,2130 2861,2139 2867,2149C2878,2167 2876,2169 2847,2176C2799,2186 2745,2187 2720,2178Z" style="fill:white;fill-rule:nonzero;"/>
        <path d="M3307,2157C3285,2123 3295,2040 3322,2040C3337,2040 3340,2045 3335,2060C3330,2077 3335,2083 3364,2095C3390,2106 3400,2116 3400,2133C3400,2183 3335,2199 3307,2157Z" style="fill:white;fill-rule:nonzero;"/>
        <path d="M3567,2147C3564,2139 3566,2127 3571,2119C3576,2111 3580,2095 3580,2082C3580,2050 3614,2057 3618,2090C3620,2104 3626,2120 3631,2126C3643,2140 3622,2160 3594,2160C3582,2160 3570,2154 3567,2147Z" style="fill:white;fill-rule:nonzero;"/>
        <path d="M3815,2069C3795,2049 3795,2048 3814,2034C3841,2015 3864,2016 3885,2040C3924,2083 3857,2111 3815,2069Z" style="fill:white;fill-rule:nonzero;"/>
        <path d="M3470,2035C3463,2027 3450,2020 3441,2019C3432,2019 3439,2013 3457,2007C3474,2000 3492,1992 3496,1988C3500,1983 3509,1980 3517,1980C3539,1980 3532,2017 3506,2033C3485,2047 3480,2047 3470,2035Z" style="fill:white;fill-rule:nonzero;"/>
    </g>
</svg>
